<svg id="visual" viewBox="0 0 900 600" width="900" height="600" xmlns="http://www.w3.org/2000/svg" version="1.1"><rect x="0" y="0" width="900" height="600" fill="#081333"></rect><g transform="translate(459.7553110983365 258.9292903302278)"><path d="M147.9 -195.6C195.2 -199.7 239.5 -164.6 231 -123.1C222.5 -81.6 161.2 -33.6 152.7 21.6C144.2 76.8 188.5 139.3 179.1 161.5C169.6 183.7 106.5 165.7 50.1 192.1C-6.3 218.4 -56 289.1 -77.2 276.6C-98.4 264.1 -91.1 168.4 -103.9 112.8C-116.6 57.2 -149.4 41.7 -187.1 6C-224.8 -29.8 -267.5 -85.7 -245.6 -103.2C-223.7 -120.7 -137.2 -99.8 -85.5 -93.7C-33.8 -87.6 -16.9 -96.3 16.7 -122.3C50.3 -148.2 100.6 -191.5 147.9 -195.6" fill="#356897"></path></g></svg>