<svg id="visual" viewBox="0 0 900 600" width="900" height="600" xmlns="http://www.w3.org/2000/svg" xmlns:xlink="http://www.w3.org/1999/xlink" version="1.1"><rect x="0" y="0" width="900" height="600" fill="#001220"></rect><path d="M0 469L6.5 469C13 469 26 469 39 467.7C52 466.3 65 463.7 78 453.2C91 442.7 104 424.3 117.2 418.7C130.3 413 143.7 420 156.8 422.5C170 425 183 423 196 428.2C209 433.3 222 445.7 235 459.8C248 474 261 490 274 483.5C287 477 300 448 313 443.3C326 438.7 339 458.3 352 472.7C365 487 378 496 391 482.3C404 468.7 417 432.3 430.2 429C443.3 425.7 456.7 455.3 469.8 459.7C483 464 496 443 509 445.3C522 447.7 535 473.3 548 470C561 466.7 574 434.3 587 435.3C600 436.3 613 470.7 626 486.7C639 502.7 652 500.3 665 500C678 499.7 691 501.3 704 493.5C717 485.7 730 468.3 743.2 459.3C756.3 450.3 769.7 449.7 782.8 443.2C796 436.7 809 424.3 822 417.8C835 411.3 848 410.7 861 408.8C874 407 887 404 893.5 402.5L900 401L900 601L893.5 601C887 601 874 601 861 601C848 601 835 601 822 601C809 601 796 601 782.8 601C769.7 601 756.3 601 743.2 601C730 601 717 601 704 601C691 601 678 601 665 601C652 601 639 601 626 601C613 601 600 601 587 601C574 601 561 601 548 601C535 601 522 601 509 601C496 601 483 601 469.8 601C456.7 601 443.3 601 430.2 601C417 601 404 601 391 601C378 601 365 601 352 601C339 601 326 601 313 601C300 601 287 601 274 601C261 601 248 601 235 601C222 601 209 601 196 601C183 601 170 601 156.8 601C143.7 601 130.3 601 117.2 601C104 601 91 601 78 601C65 601 52 601 39 601C26 601 13 601 6.5 601L0 601Z" fill="#1883a5"></path><path d="M0 444L6.5 445.8C13 447.7 26 451.3 39 458.3C52 465.3 65 475.7 78 468.5C91 461.3 104 436.7 117.2 432.2C130.3 427.7 143.7 443.3 156.8 453.7C170 464 183 469 196 474.2C209 479.3 222 484.7 235 480C248 475.3 261 460.7 274 453C287 445.3 300 444.7 313 450.3C326 456 339 468 352 472C365 476 378 472 391 475.8C404 479.7 417 491.3 430.2 498C443.3 504.7 456.7 506.3 469.8 505.8C483 505.3 496 502.7 509 492.7C522 482.7 535 465.3 548 456.7C561 448 574 448 587 459.8C600 471.7 613 495.3 626 505.5C639 515.7 652 512.3 665 497.3C678 482.3 691 455.7 704 442.2C717 428.7 730 428.3 743.2 441.2C756.3 454 769.7 480 782.8 489C796 498 809 490 822 484.5C835 479 848 476 861 479C874 482 887 491 893.5 495.5L900 500L900 601L893.5 601C887 601 874 601 861 601C848 601 835 601 822 601C809 601 796 601 782.8 601C769.7 601 756.3 601 743.2 601C730 601 717 601 704 601C691 601 678 601 665 601C652 601 639 601 626 601C613 601 600 601 587 601C574 601 561 601 548 601C535 601 522 601 509 601C496 601 483 601 469.8 601C456.7 601 443.3 601 430.2 601C417 601 404 601 391 601C378 601 365 601 352 601C339 601 326 601 313 601C300 601 287 601 274 601C261 601 248 601 235 601C222 601 209 601 196 601C183 601 170 601 156.8 601C143.7 601 130.3 601 117.2 601C104 601 91 601 78 601C65 601 52 601 39 601C26 601 13 601 6.5 601L0 601Z" fill="#29678b"></path><path d="M0 476L6.5 476.2C13 476.3 26 476.7 39 473.7C52 470.7 65 464.3 78 472.3C91 480.3 104 502.7 117.2 513.8C130.3 525 143.7 525 156.8 519.5C170 514 183 503 196 504.5C209 506 222 520 235 521C248 522 261 510 274 497.5C287 485 300 472 313 464C326 456 339 453 352 460.8C365 468.7 378 487.3 391 495.5C404 503.7 417 501.3 430.2 507.2C443.3 513 456.7 527 469.8 520.7C483 514.3 496 487.7 509 482.2C522 476.7 535 492.3 548 499.3C561 506.3 574 504.7 587 495C600 485.3 613 467.7 626 468C639 468.3 652 486.7 665 499C678 511.3 691 517.7 704 518.2C717 518.7 730 513.3 743.2 506.8C756.3 500.3 769.7 492.7 782.8 496C796 499.3 809 513.7 822 520.7C835 527.7 848 527.3 861 526.5C874 525.7 887 524.3 893.5 523.7L900 523L900 601L893.5 601C887 601 874 601 861 601C848 601 835 601 822 601C809 601 796 601 782.8 601C769.7 601 756.3 601 743.2 601C730 601 717 601 704 601C691 601 678 601 665 601C652 601 639 601 626 601C613 601 600 601 587 601C574 601 561 601 548 601C535 601 522 601 509 601C496 601 483 601 469.8 601C456.7 601 443.3 601 430.2 601C417 601 404 601 391 601C378 601 365 601 352 601C339 601 326 601 313 601C300 601 287 601 274 601C261 601 248 601 235 601C222 601 209 601 196 601C183 601 170 601 156.8 601C143.7 601 130.3 601 117.2 601C104 601 91 601 78 601C65 601 52 601 39 601C26 601 13 601 6.5 601L0 601Z" fill="#2f4d6e"></path><path d="M0 503L6.5 509C13 515 26 527 39 524C52 521 65 503 78 498.3C91 493.7 104 502.3 117.2 514C130.3 525.7 143.7 540.3 156.8 540.7C170 541 183 527 196 518.2C209 509.3 222 505.7 235 511C248 516.3 261 530.7 274 531.8C287 533 300 521 313 518.2C326 515.3 339 521.7 352 521.2C365 520.7 378 513.3 391 514.5C404 515.7 417 525.3 430.2 527.5C443.3 529.7 456.7 524.3 469.8 517.8C483 511.3 496 503.7 509 503C522 502.3 535 508.7 548 513C561 517.3 574 519.7 587 520.5C600 521.3 613 520.7 626 525.7C639 530.7 652 541.3 665 540.2C678 539 691 526 704 519.2C717 512.3 730 511.7 743.2 507.3C756.3 503 769.7 495 782.8 496.3C796 497.7 809 508.3 822 516.7C835 525 848 531 861 532.5C874 534 887 531 893.5 529.5L900 528L900 601L893.5 601C887 601 874 601 861 601C848 601 835 601 822 601C809 601 796 601 782.8 601C769.7 601 756.3 601 743.2 601C730 601 717 601 704 601C691 601 678 601 665 601C652 601 639 601 626 601C613 601 600 601 587 601C574 601 561 601 548 601C535 601 522 601 509 601C496 601 483 601 469.8 601C456.7 601 443.3 601 430.2 601C417 601 404 601 391 601C378 601 365 601 352 601C339 601 326 601 313 601C300 601 287 601 274 601C261 601 248 601 235 601C222 601 209 601 196 601C183 601 170 601 156.8 601C143.7 601 130.3 601 117.2 601C104 601 91 601 78 601C65 601 52 601 39 601C26 601 13 601 6.5 601L0 601Z" fill="#2c3550"></path><path d="M0 542L6.5 545C13 548 26 554 39 552.5C52 551 65 542 78 543.7C91 545.3 104 557.7 117.2 562.3C130.3 567 143.7 564 156.8 557.5C170 551 183 541 196 535.2C209 529.3 222 527.7 235 533.5C248 539.3 261 552.7 274 555.8C287 559 300 552 313 546.5C326 541 339 537 352 540.2C365 543.3 378 553.7 391 560.3C404 567 417 570 430.2 563.5C443.3 557 456.7 541 469.8 536.5C483 532 496 539 509 546.8C522 554.7 535 563.3 548 564.2C561 565 574 558 587 551C600 544 613 537 626 539.5C639 542 652 554 665 555.5C678 557 691 548 704 541C717 534 730 529 743.2 528.5C756.3 528 769.7 532 782.8 535.7C796 539.3 809 542.7 822 544.2C835 545.7 848 545.3 861 544.8C874 544.3 887 543.7 893.5 543.3L900 543L900 601L893.5 601C887 601 874 601 861 601C848 601 835 601 822 601C809 601 796 601 782.8 601C769.7 601 756.3 601 743.2 601C730 601 717 601 704 601C691 601 678 601 665 601C652 601 639 601 626 601C613 601 600 601 587 601C574 601 561 601 548 601C535 601 522 601 509 601C496 601 483 601 469.8 601C456.7 601 443.3 601 430.2 601C417 601 404 601 391 601C378 601 365 601 352 601C339 601 326 601 313 601C300 601 287 601 274 601C261 601 248 601 235 601C222 601 209 601 196 601C183 601 170 601 156.8 601C143.7 601 130.3 601 117.2 601C104 601 91 601 78 601C65 601 52 601 39 601C26 601 13 601 6.5 601L0 601Z" fill="#221f32"></path></svg>