<?xml version="1.0" encoding="iso-8859-1"?>
<!-- Generator: Adobe Illustrator 19.0.0, SVG Export Plug-In . SVG Version: 6.00 Build 0)  -->
<svg version="1.1" id="Layer_1" xmlns="http://www.w3.org/2000/svg" xmlns:xlink="http://www.w3.org/1999/xlink" x="0px" y="0px"
	 viewBox="0 0 512.013 512.013" style="enable-background:new 0 0 512.013 512.013;" xml:space="preserve">
<g>
	<path style="fill:#283238;" d="M146.8,106.756c-4.3,0-8.1-3.2-8.7-7.6l-1.2-8.7c-0.7-4.8,2.7-9.3,7.5-9.9c4.8-0.7,9.3,2.7,9.9,7.5
		l1.2,8.7c0.7,4.8-2.7,9.3-7.5,9.9C147.6,106.756,147.2,106.756,146.8,106.756"/>
	<path style="fill:#283238;" d="M176.6,129.456c-4.3,0-8.1-3.2-8.7-7.6c-0.7-4.8,2.7-9.3,7.5-9.9l8.7-1.2c4.8-0.7,9.3,2.7,9.9,7.5
		c0.7,4.8-2.7,9.3-7.5,9.9l-8.7,1.2C177.4,129.456,177,129.456,176.6,129.456"/>
	<path style="fill:#283238;" d="M115.4,137.856c-4.3,0-8.1-3.2-8.7-7.6c-0.7-4.8,2.7-9.3,7.5-9.9l8.7-1.2c4.8-0.7,9.3,2.7,9.9,7.5
		c0.7,4.8-2.7,9.3-7.5,9.9l-8.7,1.2C116.2,137.856,115.8,137.856,115.4,137.856"/>
	<path style="fill:#283238;" d="M166.4,111.956c-1.9,0-3.7-0.6-5.3-1.8c-3.9-2.9-4.6-8.5-1.7-12.4l5.3-7c2.9-3.9,8.5-4.6,12.4-1.7
		s4.6,8.5,1.7,12.4l-5.3,7C171.7,110.756,169.1,111.956,166.4,111.956"/>
	<path style="fill:#283238;" d="M129.3,117.056c-1.9,0-3.7-0.6-5.3-1.8l-7-5.3c-3.9-2.9-4.6-8.5-1.7-12.4c3-3.9,8.5-4.6,12.4-1.7
		l7,5.3c3.9,2.9,4.6,8.5,1.7,12.4C134.6,115.856,132,117.056,129.3,117.056"/>
	<path style="fill:#283238;" d="M126.2,134.556l50.6-9.1c0.1-1.6,0.1-3.2-0.1-4.9c-2-14.5-15.3-24.6-29.8-22.6s-24.6,15.3-22.6,29.8
		C124.5,130.256,125.3,132.456,126.2,134.556"/>
</g>
<path style="fill:#38454F;" d="M494.3,159.856l-80.8-33.7c-9.9-4.1-14.7-11.4-18.7-20.9c-4.4-10.4-6.4-21.6-6.4-32.8
	c0-15.1-12.3-27.4-27.4-27.4H254.1c-13.6,0-24.6,11-24.6,24.6v3.9c0,11.4-2.3,22.8-7.9,32.6c-4.4,7.8-10.2,13-19.9,14.8l-132.1,23.8
	c-40.6,8.8-69.6,44.7-69.6,86.3v190.2c0,11.7,9.4,21.1,21.1,21.1h215.3c-51.2-26.4-86.3-79.7-86.3-141.2
	c0-87.8,71.1-158.9,158.9-158.9s158.9,71.1,158.9,158.9c0,61.6-35.1,114.9-86.3,141.2h112.8
	C517.9,442.356,517.9,159.856,494.3,159.856"/>
<g>
	<path style="fill:#283238;" d="M494.3,159.856l-80.8-33.7c-6.2-2.6-10.2-6.4-13.4-11.2c5.8-14.2,22.1-21,36.3-15.2l46.5,19.1
		c14.2,5.8,21,22.1,15.2,36.3l-1.5,3.7C495.7,159.256,495.2,159.456,494.3,159.856"/>
	<path style="fill:#283238;" d="M129.2,227.956c7.5-15.1,7.5-32.9,0-48l-18.9-37.8l-27.8,0.2l-12.9,2.3
		c-40.6,8.9-69.6,44.8-69.6,86.4v190.2c0,11.7,9.4,21.1,21.1,21.1h102.5v-190.4C123.6,243.656,125.5,235.456,129.2,227.956"/>
</g>
<path style="fill:#50508A;" d="M467.9,301.056c0,87.8-71.1,158.9-158.9,158.9s-158.9-71.1-158.9-158.9s71.1-158.9,158.9-158.9
	S467.9,213.356,467.9,301.056"/>
<g>
	<path style="fill:#283238;" d="M309,466.956c-91.5,0-165.9-74.4-165.9-165.9s74.4-165.9,165.9-165.9s165.9,74.4,165.9,165.9
		S400.4,466.956,309,466.956z M309,149.156c-83.8,0-151.9,68.1-151.9,151.9s68.1,151.9,151.9,151.9s151.9-68.1,151.9-151.9
		S392.7,149.156,309,149.156z"/>
	<path style="fill:#283238;" d="M462.8,186.356h-16.4c-7.7,0-13.9,6.2-13.9,13.9v1.1c7.2,9,13.4,18.7,18.6,29.1h11.7
		c7.6,0,13.9-6.2,13.9-13.9v-16.4C476.7,192.556,470.5,186.356,462.8,186.356"/>
</g>
<path style="fill:#434C6D;" d="M309,424.656c-68.1,0-123.6-55.4-123.6-123.6s55.4-123.5,123.6-123.5s123.6,55.4,123.6,123.5
	S377.1,424.656,309,424.656"/>
<g>
	<path style="fill:#38454F;" d="M61.8,407.056c-14.6,0-26.5-11.9-26.5-26.5s11.9-26.5,26.5-26.5s26.5,11.9,26.5,26.5
		S76.4,407.056,61.8,407.056"/>
	<path style="fill:#38454F;" d="M70.6,327.556c0,4.9-4,8.8-8.8,8.8s-8.8-4-8.8-8.8c0-4.9,4-8.8,8.8-8.8S70.6,322.656,70.6,327.556"
		/>
</g>
<path style="fill:#ECBA16;" d="M317.8,98.056h-17.7c-14.6,0-26.5-11.9-26.5-26.5v-26.5h70.6v26.5
	C344.3,86.156,332.4,98.056,317.8,98.056"/>
<g>
	<path style="fill:#38454F;" d="M97.1,230.456h-53c-4.9,0-8.8-4-8.8-8.8c0-4.9,4-8.8,8.8-8.8h53c4.9,0,8.8,4,8.8,8.8
		C105.9,226.556,102,230.456,97.1,230.456"/>
	<path style="fill:#38454F;" d="M97.1,195.156H53c-4.9,0-8.8-4-8.8-8.8s4-8.8,8.8-8.8h44.1c4.9,0,8.8,4,8.8,8.8
		S102,195.156,97.1,195.156"/>
	<path style="fill:#38454F;" d="M88.3,265.756h-53c-4.9,0-8.8-4-8.8-8.8c0-4.9,4-8.8,8.8-8.8h53c4.9,0,8.8,4,8.8,8.8
		C97.1,261.856,93.1,265.756,88.3,265.756"/>
	<path style="fill:#38454F;" d="M88.3,301.056h-53c-4.9,0-8.8-4-8.8-8.8c0-4.9,4-8.8,8.8-8.8h53c4.9,0,8.8,4,8.8,8.8
		C97.1,297.156,93.1,301.056,88.3,301.056"/>
</g>
<path style="fill:#7383BF;" d="M421.5,370.156c1-1,1.7-2.2,2.1-3.5c11.1-19.3,17.4-41.7,17.4-65.5c0-11-1.4-21.6-3.9-31.9
	c-0.1-1-0.3-1.9-0.7-2.8c-8.9-32.7-30.1-60.4-58.4-77.8c-1.2-1.3-2.8-2.3-4.6-2.7c-19.1-10.7-41-16.8-64.4-16.8
	c-10.8,0-21.4,1.3-31.4,3.8c-1.6,0-3.1,0.4-4.5,1.2c-32.2,9.1-59.4,30.2-76.6,58.1c-1.4,1.2-2.4,2.9-2.8,4.8
	c-10.6,19-16.7,40.9-16.7,64.2c0,10.4,1.2,20.5,3.5,30.2c-0.1,1.9,0.3,3.9,1.4,5.5c9.1,32.3,30.1,59.6,58.1,76.8
	c1,1,2.3,1.8,3.8,2.2c19.3,11,41.6,17.3,65.3,17.3c10.4,0,20.6-1.2,30.3-3.5l0,0c1.5,0,2.9-0.4,4.2-1.1
	C376.3,419.556,404.1,398.356,421.5,370.156z M359.5,407.556c4.6-9.4,7-19.9,7.1-30.8c0.1-19.2-7.1-37.1-20.3-50.6
	c-3.4-3.5-9-3.5-12.5-0.1s-3.5,9-0.1,12.5c20.4,20.7,20.2,55.4-0.5,75.9c-0.7,0.7-1.3,1.5-1.7,2.3c-7.3,1.4-14.8,2.2-22.5,2.2
	c-13.8,0-27-2.4-39.3-6.7c9.9-3.5,19-9.1,26.8-16.8c13.6-13.5,21.2-31.3,21.3-50.2c0-4.9-3.9-8.9-8.8-8.9c-4.8,0.2-8.9,3.9-8.9,8.8
	c-0.1,14.2-5.8,27.6-16.1,37.7c-10.2,10.1-23.5,15.6-37.6,15.6c-0.1,0-0.3,0-0.4,0c-1,0-1.9,0.2-2.8,0.5
	c-17.3-11.7-31.4-27.8-40.6-46.7c9.4,4.4,19.7,6.8,30.5,6.9h0.4c19,0,36.8-7.2,50.1-20.4c3.5-3.4,3.5-9,0.1-12.5s-9-3.5-12.5-0.1
	c-10.1,9.9-23.3,15.2-38,15.3c-14.4-0.1-27.9-5.7-37.8-15.7c-0.6-0.7-1.4-1.2-2.1-1.6c-1.5-7.5-2.3-15.2-2.3-23
	c0-13.5,2.3-26.5,6.5-38.6c3.5,9.8,9.3,18.9,16.9,26.5c13.5,13.5,31.4,20.9,50.2,20.9c4.7,0.4,8.9-3.9,8.9-8.8s-4-8.8-8.8-8.8h-0.1
	c-29,0-53.6-24.5-53.6-53.6c0-0.9-0.1-1.8-0.4-2.6c11.6-17.4,27.7-31.6,46.6-40.9c-12.6,26.5-7.9,59.2,14,81.1
	c1.7,1.7,4,2.6,6.2,2.6c2.3,0,4.5-0.9,6.2-2.6c3.4-3.5,3.4-9,0-12.5c-20.6-20.5-20.6-55.3-0.1-75.9c0.7-0.7,1.2-1.5,1.6-2.3
	c7.6-1.6,15.5-2.4,23.6-2.4c13.5,0,26.6,2.3,38.7,6.5c-27.7,9.8-47.5,36.2-47.5,67.2c0,4.9,4,8.8,8.8,8.8s8.8-4,8.8-8.8
	c0-29.1,24.6-53.6,53.6-53.6c0.9,0,1.8-0.1,2.7-0.4c17.6,11.7,31.9,28,41.1,47.1c-26.6-12.8-59.5-8.2-81.5,13.7
	c-3.5,3.5-3.5,9,0,12.5c1.7,1.7,4,2.6,6.2,2.6c2.3,0,4.5-0.9,6.2-2.6c20.6-20.6,55.3-20.6,75.9,0c0.7,0.7,1.6,1.3,2.5,1.7
	c1.5,7.5,2.3,15.2,2.3,23.1c0,13.8-2.4,27.1-6.8,39.4c-3.4-9.9-9.1-19.1-16.8-26.8c-13.5-13.6-31.3-21.2-50.1-21.4h-0.1
	c-4.9,0-8.8,3.9-8.8,8.8s3.9,8.9,8.8,8.9c14.2,0.1,27.5,5.8,37.7,16.1c10.1,10.3,15.7,23.7,15.6,37.9c0,1,0.2,2,0.5,2.9
	C395,384.256,378.7,398.456,359.5,407.556z"/>
<path style="fill:#FFFFFF;" d="M309,345.256c-24.3,0-44.1-19.8-44.1-44.1s19.7-44.2,44.1-44.2s44.1,19.8,44.1,44.1
	S333.3,345.256,309,345.256"/>
<circle style="fill:#7383BF;" cx="309" cy="301.056" r="8.8"/>
<g>
</g>
<g>
</g>
<g>
</g>
<g>
</g>
<g>
</g>
<g>
</g>
<g>
</g>
<g>
</g>
<g>
</g>
<g>
</g>
<g>
</g>
<g>
</g>
<g>
</g>
<g>
</g>
<g>
</g>
</svg>
