<svg id="visual" viewBox="0 0 900 600" width="900" height="600" xmlns="http://www.w3.org/2000/svg" xmlns:xlink="http://www.w3.org/1999/xlink" version="1.1"><rect x="0" y="0" width="900" height="600" fill="#002233"></rect><path d="M0 406L16.7 418.3C33.3 430.7 66.7 455.3 100 467.8C133.3 480.3 166.7 480.7 200 471.7C233.3 462.7 266.7 444.3 300 434.5C333.3 424.7 366.7 423.3 400 417.5C433.3 411.7 466.7 401.3 500 414.5C533.3 427.7 566.7 464.3 600 483C633.3 501.7 666.7 502.3 700 485.3C733.3 468.3 766.7 433.7 800 412.2C833.3 390.7 866.7 382.3 883.3 378.2L900 374L900 601L883.3 601C866.7 601 833.3 601 800 601C766.7 601 733.3 601 700 601C666.7 601 633.3 601 600 601C566.7 601 533.3 601 500 601C466.7 601 433.3 601 400 601C366.7 601 333.3 601 300 601C266.7 601 233.3 601 200 601C166.7 601 133.3 601 100 601C66.7 601 33.3 601 16.7 601L0 601Z" fill="#0066FF" stroke-linecap="round" stroke-linejoin="miter"></path></svg>