<svg id="visual" viewBox="0 0 900 600" width="900" height="600" xmlns="http://www.w3.org/2000/svg" version="1.1"><rect x="0" y="0" width="900" height="600" fill="#031c2f"></rect><defs><linearGradient id="grad1_0" x1="33.3%" y1="0%" x2="100%" y2="100%"><stop offset="20%" stop-color="#031c2f" stop-opacity="1"></stop><stop offset="80%" stop-color="#031c2f" stop-opacity="1"></stop></linearGradient></defs><defs><linearGradient id="grad2_0" x1="0%" y1="0%" x2="66.7%" y2="100%"><stop offset="20%" stop-color="#031c2f" stop-opacity="1"></stop><stop offset="80%" stop-color="#031c2f" stop-opacity="1"></stop></linearGradient></defs><g transform="translate(900, 0)"><path d="M0 189.3C-19.7 186.4 -39.3 183.4 -56.6 174C-73.8 164.7 -88.6 148.9 -95.8 131.9C-103 114.9 -102.5 96.6 -118.1 85.8C-133.7 75 -165.5 71.6 -180 58.5C-194.6 45.4 -191.9 22.7 -189.3 0L0 0Z" fill="#590026"></path></g><g transform="translate(0, 600)"><path d="M0 -189.3C18.8 -183.1 37.7 -176.9 55.3 -170.2C72.9 -163.5 89.3 -156.3 107 -147.2C124.6 -138.2 143.6 -127.4 153.1 -111.3C162.7 -95.2 162.9 -73.8 167.4 -54.4C171.9 -35 180.6 -17.5 189.3 0L0 0Z" fill="#590026"></path></g></svg>