<svg id="visual" viewBox="0 0 900 600" width="900" height="600" xmlns="http://www.w3.org/2000/svg" version="1.1"><rect x="0" y="0" width="900" height="600" fill="#081333"></rect><g transform="translate(426.5242475623686 312.1626423973144)"><path d="M110.8 -200C129.3 -160.5 120.1 -105.6 155.9 -61.2C191.8 -16.9 272.6 17 298 63.5C323.5 110.1 293.6 169.3 247.3 203.5C200.9 237.8 138.1 247 89.7 223.9C41.3 200.8 7.5 145.4 -52.3 143.6C-112.1 141.8 -197.7 193.7 -235.2 184.7C-272.7 175.8 -262.1 106 -243.5 51.9C-224.9 -2.1 -198.4 -40.3 -177.6 -79.1C-156.8 -118 -141.6 -157.4 -113 -192.3C-84.3 -227.2 -42.2 -257.6 2 -260.7C46.1 -263.8 92.3 -239.6 110.8 -200" fill="#356897"></path></g></svg>