<svg id="visual" viewBox="0 0 900 600" width="900" height="600" xmlns="http://www.w3.org/2000/svg" xmlns:xlink="http://www.w3.org/1999/xlink" version="1.1"><rect width="900" height="600" fill="#11171c"></rect><g><g transform="translate(696 1)"><path d="M0 -155.8L134.9 -77.9L134.9 77.9L0 155.8L-134.9 77.9L-134.9 -77.9Z" fill="none" stroke="#376a81" stroke-width="2"></path></g><g transform="translate(554 395)"><path d="M0 -111L96.1 -55.5L96.1 55.5L0 111L-96.1 55.5L-96.1 -55.5Z" fill="none" stroke="#376a81" stroke-width="2"></path></g><g transform="translate(65 55)"><path d="M0 -78L67.5 -39L67.5 39L0 78L-67.5 39L-67.5 -39Z" fill="none" stroke="#376a81" stroke-width="2"></path></g><g transform="translate(876 264)"><path d="M0 -100L86.6 -50L86.6 50L0 100L-86.6 50L-86.6 -50Z" stroke="#376a81" fill="none" stroke-width="2"></path></g></g></svg>